<svg id="visual" viewBox="0 0 900 600" width="100%" height="100%" xmlns="http://www.w3.org/2000/svg" xmlns:xlink="http://www.w3.org/1999/xlink" version="1.1"><rect x="0" y="0" width="900" height="600" fill="#931C1C"></rect><path d="M0 160L150 214L300 100L450 158L600 217L750 254L900 105L900 601L750 601L600 601L450 601L300 601L150 601L0 601Z" fill="#f5730a"></path><path d="M0 278L150 241L300 221L450 199L600 235L750 248L900 199L900 601L750 601L600 601L450 601L300 601L150 601L0 601Z" fill="#eb6a0a"></path><path d="M0 216L150 249L300 298L450 264L600 211L750 271L900 270L900 601L750 601L600 601L450 601L300 601L150 601L0 601Z" fill="#e16209"></path><path d="M0 304L150 274L300 271L450 320L600 210L750 266L900 328L900 601L750 601L600 601L450 601L300 601L150 601L0 601Z" fill="#d75909"></path><path d="M0 310L150 276L300 248L450 267L600 289L750 336L900 301L900 601L750 601L600 601L450 601L300 601L150 601L0 601Z" fill="#cd5108"></path><path d="M0 354L150 383L300 352L450 387L600 316L750 332L900 389L900 601L750 601L600 601L450 601L300 601L150 601L0 601Z" fill="#c34807"></path><path d="M0 353L150 363L300 386L450 384L600 393L750 339L900 329L900 601L750 601L600 601L450 601L300 601L150 601L0 601Z" fill="#b94007"></path><path d="M0 451L150 421L300 399L450 455L600 373L750 458L900 421L900 601L750 601L600 601L450 601L300 601L150 601L0 601Z" fill="#af3706"></path><path d="M0 476L150 466L300 488L450 459L600 468L750 414L900 412L900 601L750 601L600 601L450 601L300 601L150 601L0 601Z" fill="#a52f05"></path><path d="M0 506L150 512L300 506L450 508L600 454L750 484L900 453L900 601L750 601L600 601L450 601L300 601L150 601L0 601Z" fill="#9b2604"></path><path d="M0 516L150 538L300 519L450 505L600 535L750 517L900 546L900 601L750 601L600 601L450 601L300 601L150 601L0 601Z" fill="#911e02"></path><path d="M0 541L150 566L300 547L450 540L600 549L750 566L900 557L900 601L750 601L600 601L450 601L300 601L150 601L0 601Z" fill="#871400"></path></svg>